<?xml version="1.0" encoding="iso-8859-1"?>
<!-- Generator: Adobe Illustrator 19.0.0, SVG Export Plug-In . SVG Version: 6.00 Build 0)  -->
<svg version="1.1" id="Layer_1" xmlns="http://www.w3.org/2000/svg" xmlns:xlink="http://www.w3.org/1999/xlink" x="0px" y="0px"
	 viewBox="0 0 512.019 512.019" style="enable-background:new 0 0 512.019 512.019;" xml:space="preserve">
<g transform="translate(0 -1)">
	<g>
		<g>
			<path d="M255.994,42.372c5.88,4.412,11.025,4.89,26.402,5.76c45.056,2.586,73.626,12.211,105.404,35.541
				c38.903,28.459,63.309,68.156,72.559,117.99c2.381,12.902,3.558,23.851,4.36,40.354c0.486,11.068,0.87,15.36,3.388,20.207
				c3.55,6.613,10.428,11.008,18.406,11.75c0.785,0.068,1.57,0.102,2.347,0.102c7.1,0,13.688-3.004,17.894-8.235
				c5.589-6.81,5.581-13.158,5.035-26.829c-1.604-42.342-10.863-80.384-27.52-113.067c-11.878-23.253-23.219-38.485-43.358-58.231
				c-21.478-20.881-38.033-32.563-63.309-44.638C350.825,10.295,331.881,6.25,304.139,2.863c-5.598-0.64-16.137-1.476-23.45-1.715
				c-13.935-0.461-19.379-0.085-25.813,5.632c-4.932,4.343-7.62,10.94-7.398,18.116C247.699,32.021,250.788,38.361,255.994,42.372z"
				/>
			<path d="M396.436,225.422c0,11.989,0.99,23.245,12.808,29.065c3.243,1.681,7.467,2.526,11.588,2.526
				c3.661,0,7.228-0.674,9.95-2.039c4.779-2.458,9.6-7.646,11.486-12.339c2.398-6.05,1.306-27.742,0.623-33.86
				c-3.2-27.332-12.698-53.137-27.46-74.615c-26.743-38.852-66.816-62.345-119.083-69.828c-17.724-2.611-30.891-3.533-38.639,8.294
				c-6.084,8.986-5.308,20.446,1.877,28.476c5.726,6.494,13.926,7.962,21.18,8.542c20.77,1.638,44.032,8.439,59.281,17.323
				l0.026,0.008c17.741,10.274,32.427,25.208,42.487,43.196C391.376,185.904,396.436,206.043,396.436,225.422z"/>
			<path d="M350.977,152.133c-11.674-10.692-25.353-17.391-43.017-21.077c-4.045-0.853-10.906-1.596-15.172-1.835
				c-7.356-0.452-10.385-0.375-15.616,2.167c-6.323,3.174-10.752,9.062-12.169,16.137c-1.408,7.031,0.393,14.106,5.001,19.482
				c5.325,6.084,10.778,7.603,21.777,8.909c18.381,2.202,28.732,8.388,34.586,20.659c2.961,6.263,4.642,13.124,5.615,22.989
				c1.007,9.242,2.816,15.172,9.395,20.036c4.139,3.123,9.378,4.668,14.566,4.668c5.675,0,11.298-1.852,15.403-5.513l0.051-0.034
				c8.482-7.671,8.841-17.186,6.545-32.034C374.384,182.904,366.081,166.076,350.977,152.133z"/>
			<path d="M511.965,413.822c-0.418-9.293-3.61-17.604-9.566-24.781c-5.751-6.784-42.487-35.831-58.88-47.053
				c-12.749-8.678-32.896-20.898-42.317-25.668c-13.918-6.921-27.913-8.132-41.685-3.567c-3.012,1.007-5.163,1.903-7.185,2.961
				c-6.972,3.661-12.092,9.429-22.042,21.666c-10.658,12.868-12.877,15.369-12.851,15.369c-1.007,0.606-2.611,1.459-4.557,2.347
				c-7.927,3.61-20.924,0.64-42.061-9.66c-17.835-8.627-33.852-19.703-51.942-35.9c-15.411-13.73-30.908-31.539-39.509-45.355
				c-11.947-19.166-19.174-41.344-19.26-51.644c0-4.011,1.758-9.771,3.661-12.945l0.836-0.862c0.563-0.546,1.186-1.135,2.039-1.886
				c2.97-2.671,7.27-6.246,11.75-9.788c19.661-15.488,25.89-21.76,29.218-33.408c3.217-10.769,0.393-24.03-8.892-41.719
				c-13.833-26.394-57.694-82.569-75.998-94.413c-3.012-1.886-7.97-4.429-11.477-5.606c-7.509-2.654-18.295-3.558-25.003-2.133
				c-9.284,1.903-19.473,7.748-41.958,24.081C31.965,42.878,12.97,60.516,7.815,68.947c-12.16,20.42-9.062,38.135,1.963,67.806
				c10.505,28.314,23.979,56.815,39.996,84.642l0.836,1.408c3.226,5.572,6.528,11.128,9.993,16.7l0.896,1.408
				c3.439,5.47,6.921,10.931,10.564,16.367l5.743,8.354c2.142,3.123,4.275,6.238,6.485,9.336
				c4.361,6.076,8.832,12.134,13.466,18.176c49.399,64.324,106.308,115.968,173.969,157.858l2.773,1.741
				c9.822,6.016,20.275,12.032,31.061,17.869l4.215,2.27c11.162,5.939,21.768,11.264,32.427,16.256l3.319,1.51
				c12.587,5.828,24.098,10.837,35.174,15.3c13.406,5.41,19.61,7.066,29.03,7.066c1.673,0,3.456-0.051,5.402-0.145
				c6.076-0.29,11.537-1.195,16.708-2.773c7.262-2.202,14.532-5.897,22.852-11.64c1.451-0.998,2.901-2.014,4.463-3.166
				c1.843-1.357,3.806-3.021,5.794-4.736c9.481-8.201,20.361-20.113,29.124-31.863c4.676-6.272,10.889-15.377,13.986-23.194
				c2.901-7.313,4.215-14.609,3.908-21.666V413.822z"/>
		</g>
	</g>
</g>
<g>
</g>
<g>
</g>
<g>
</g>
<g>
</g>
<g>
</g>
<g>
</g>
<g>
</g>
<g>
</g>
<g>
</g>
<g>
</g>
<g>
</g>
<g>
</g>
<g>
</g>
<g>
</g>
<g>
</g>
</svg>
