<?xml version="1.0" encoding="iso-8859-1"?>
<!-- Generator: Adobe Illustrator 18.1.1, SVG Export Plug-In . SVG Version: 6.00 Build 0)  -->
<svg version="1.1" id="Capa_1" xmlns="http://www.w3.org/2000/svg" xmlns:xlink="http://www.w3.org/1999/xlink" x="0px" y="0px"
	 viewBox="0 0 268.89 268.89" style="enable-background:new 0 0 268.89 268.89;" xml:space="preserve">
<g>
	<g>
		<path style="fill:#010002;" d="M117.696,215.019c-14.804,0-26.851,12.053-26.851,26.851c0,14.804,12.047,26.851,26.851,26.851
			s26.851-12.047,26.851-26.851C144.547,227.066,132.506,215.019,117.696,215.019z"/>
		<path style="fill:#010002;" d="M201.841,215.019c-14.804,0-26.851,12.053-26.851,26.851c0,14.804,12.047,26.851,26.851,26.851
			c14.798,0,26.851-12.047,26.851-26.851C228.692,227.066,216.639,215.019,201.841,215.019z"/>
		<path style="fill:#010002;" d="M267.62,68.109c-1.128-1.444-2.858-2.285-4.696-2.285H61.178l-16.63-61.25
			c-0.036-0.131-0.131-0.233-0.179-0.358c-0.131-0.388-0.328-0.728-0.537-1.074c-0.197-0.328-0.376-0.65-0.627-0.931
			c-0.245-0.28-0.531-0.489-0.829-0.716c-0.31-0.239-0.609-0.471-0.961-0.644c-0.328-0.167-0.68-0.251-1.044-0.358
			c-0.388-0.113-0.764-0.209-1.175-0.239c-0.143-0.006-0.263-0.084-0.412-0.084H5.967C2.673,0.17,0,2.843,0,6.137
			s2.673,5.967,5.967,5.967H34.22l16.606,61.172l29.822,120.811c0.656,2.667,3.049,4.541,5.794,4.541h146.642
			c2.745,0,5.132-1.868,5.794-4.541l29.834-120.865C269.159,71.438,268.754,69.558,267.62,68.109z"/>
	</g>
</g>
<g>
</g>
<g>
</g>
<g>
</g>
<g>
</g>
<g>
</g>
<g>
</g>
<g>
</g>
<g>
</g>
<g>
</g>
<g>
</g>
<g>
</g>
<g>
</g>
<g>
</g>
<g>
</g>
<g>
</g>
</svg>
