<svg xmlns="http://www.w3.org/2000/svg" viewBox="0 0 48 48"><title>ibooks-glyph</title><g id="ibooks"><path id="ibooks-2" data-name="ibooks" d="M24,4.49A19.51,19.51,0,1,0,43.51,24,19.51,19.51,0,0,0,24,4.49ZM23.44,33a11.41,11.41,0,0,0-5.12-1.16,16.4,16.4,0,0,0-6.76,1.57V16.11a15,15,0,0,1,6.17-1.48,8.38,8.38,0,0,1,5.71,1.95Zm13,.42a16.4,16.4,0,0,0-6.76-1.57A11.4,11.4,0,0,0,24.56,33V16.57a8.38,8.38,0,0,1,5.71-1.95,15,15,0,0,1,6.17,1.48ZM24,2A22,22,0,1,0,46,24,22,22,0,0,0,24,2Zm0,43.17A21.17,21.17,0,1,1,45.17,24,21.19,21.19,0,0,1,24,45.17Z" fill="#F2913D"/></g></svg>